***** Worlds.Greatest.Dad.2009.DVDRiP.XViD.MULTI-Zen_Bud *****

Format                           : AVI
File size                        : 706 MiB
Duration                         : 1h 34mn
Overall bit rate                 : 1 044 Kbps

Video

Format                           : MPEG-4 Visual
Codec ID/Hint                    : XviD
Duration                         : 1h 34mn
Bit rate                         : 903 Kbps
Width                            : 720 pixels
Height                           : 552 pixels
Display aspect ratio             : 1.855
Stream size                      : 611 MiB (86%)
Writing library                  : XviD 1.1.2 (UTC 2006-11-01)

Audio

Format                           : MPEG Audio
Codec ID/Hint                    : MP3
Duration                         : 1h 34mn
Bit rate                         : 128 Kbps
Channel(s)                       : 2 channels
Sampling rate                    : 48.0 KHz
Stream size                      : 86.6 MiB (12%)
Writing library                  : LAME3.98
Language                         : English

Text #1
Language                         : Finnish

Text #2
Language                         : Norwegian

Text #3
Language                         : Swedish

******************************************************************

A comedy about a man who learns that the things you want most
may not be the things that make you happy, and that being lonely 
is not necessarily the same as being alone. 
 
http://en.wikipedia.org/wiki/World%27s_Greatest_Dad

******************************************************************